<svg version="1.2" baseProfile="tiny-ps" xmlns="http://www.w3.org/2000/svg" viewBox="0 0 100 100" width="100" height="100">
	<title>Folder 1</title>
	<style>
		tspan { white-space:pre }
		.s0 { fill: #fe9601 } 
		.s1 { fill: #ffffff } 
	</style>
	<g id="Folder 1">
		<path id="Shape 1" class="s0" d="m0 5c0-2.76 2.24-5 5-5h90c2.76 0 5 2.24 5 5v90c0 2.76-2.24 5-5 5h-90c-2.76 0-5-2.24-5-5v-90z" />
		<path id="Layer" class="s1" d="m71.09 64.11c3.96 0 7.17 3.21 7.17 7.17c0 3.96-3.21 7.17-7.17 7.17c-3.96 0-7.17-3.21-7.17-7.17c0-1.01 0.21-1.96 0.58-2.83l-0.31 0.35l-22.57-11.59c-2.05 2.54-5.18 4.17-8.7 4.17c-6.17 0-11.17-5-11.17-11.17c0-6.17 5-11.17 11.17-11.17c3.46 0 6.55 1.57 8.6 4.04l22.83-11.47l0.56 0.67c-0.61-1.05-0.99-2.26-0.99-3.57c0-3.96 3.21-7.17 7.17-7.17c3.96 0 7.17 3.21 7.17 7.17c0 3.96-3.21 7.17-7.17 7.17c-2.46 0-4.62-1.24-5.91-3.11l-22.85 11.44c1.11 1.73 1.76 3.79 1.76 6c0 2.14-0.61 4.14-1.66 5.84l22.54 11.54c1.25-2.08 3.51-3.49 6.12-3.49l0 0z" />
	</g>
</svg>
